<?xml version="1.0" encoding="windows-1252"?>
<!-- Generator: Adobe Illustrator 19.0.0, SVG Export Plug-In . SVG Version: 6.00 Build 0)  -->
<svg version="1.1" id="Layer_1" xmlns="http://www.w3.org/2000/svg" xmlns:xlink="http://www.w3.org/1999/xlink" x="0px" y="0px" viewBox="0 0 504.064 504.064" style="enable-background:new 0 0 504.064 504.064;" xml:space="preserve">
<g transform="translate(1 1)">
	<g>
		<path d="M413.416,416.207h-0.914l-78.396-32.914h46.396c21.029,0,37.486-16.457,37.486-36.571v-8.229    c0-8.062-2.796-15.68-7.435-21.919c14.774-6.01,25.927-21.207,26.635-37.51v-5.486c0-13.182-7.462-24.793-18.781-31.23    c5.431-6.386,8.724-14.638,8.724-23.627v-8.229c0-21.029-16.457-37.486-36.571-37.486h-100.57c0,0-0.001,0-0.001,0h-55.771    l9.143-11.886c12.8-17.371,45.714-77.714,48.457-114.286c0.914-21.029-16.457-43.886-37.486-47.543    c-6.4-0.914-29.257-1.829-38.4,32.914c-8.229,32.914-44.8,84.114-71.314,106.057c-12.8,10.971-23.771,25.6-33.829,43.886H79.702    c-21.943,0-36.571,13.714-36.571,32.914v164.571c0,19.2,14.629,40.229,36.571,40.229h34.743    c37.486,28.343,42.057,28.343,117.943,28.343h10.971l153.6,49.371c5.486,1.828,15.543,5.486,25.6,5.486    c10.971,0,22.857-4.571,31.086-20.114C468.273,451.864,451.816,436.321,413.416,416.207z M399.702,346.721    c0,10.057-8.229,18.286-19.2,18.286h-92.343h-7.314c-10.057,0-18.286-8.229-18.286-18.286v-8.229c0-10.971,8.229-19.2,18.286-19.2    h1.829h97.829c10.057,0,19.2,9.143,19.2,19.2V346.721z M418.902,279.064c0,10.971-10.057,21.943-21.029,21.943h-17.371h-97.829    c-11.886,0-20.114-7.314-20.114-18.286v-5.486c0-11.886,9.143-21.943,20.114-21.943h7.314h100.571h7.314    c10.057,0,21.029,6.4,21.029,18.286V279.064z M408.845,210.493v8.229c0,10.057-8.229,18.286-18.286,18.286H289.988    c-10.057,0-18.286-8.229-18.286-18.286v-8.229c0-2.743,0.514-5.314,1.443-7.629c0.232-0.579,0.49-1.141,0.773-1.686    c1.129-2.18,2.648-4.082,4.456-5.62c1.356-1.153,2.875-2.101,4.514-2.808c1.093-0.471,2.239-0.836,3.427-1.082    c1.188-0.246,2.416-0.375,3.673-0.375h100.571C400.616,191.293,408.845,199.521,408.845,210.493z M437.188,475.636    c-5.486,10.057-11.886,12.8-34.743,4.571l-155.429-50.286c-0.914,0-1.829,0-2.743,0h-12.8c-74.971,0-74.057,0-109.714-26.514    c-1.829-0.914-3.657-1.829-5.486-1.829H79.702c-10.057,0-18.286-11.886-18.286-21.943V215.064    c0-13.714,15.543-14.629,18.286-14.629h22.872c-13.596,36.88-5.408,65.1-4.587,66.743c1.829,3.657,5.486,6.4,9.143,6.4    c0.914,0,1.829,0,1.829,0c5.486-1.829,8.229-7.314,6.4-11.886c0-0.89-7.786-28.631,7.814-63.831    c0.759-0.59,1.502-1.257,2.243-1.998c9.143-19.2,19.2-32.914,31.086-42.971c25.6-21.943,67.657-75.886,77.714-115.2    c1.829-10.057,7.314-21.029,17.371-19.2c10.971,1.829,22.857,16.457,21.943,27.429c-2.743,32-32.914,88.686-45.714,105.143    l-18.286,26.514c-1.829,2.743-2.743,6.4-0.914,9.143c1.829,2.743,4.571,4.571,8.229,4.571h41.67    c-1.566,2.705-2.806,5.638-3.673,8.746c-0.043,0.148-0.082,0.299-0.124,0.448c-0.113,0.427-0.218,0.857-0.317,1.29    c-0.328,1.398-0.572,2.838-0.733,4.32c-0.038,0.338-0.071,0.678-0.1,1.019c-0.029,0.358-0.059,0.715-0.079,1.078    c-0.044,0.76-0.073,1.526-0.073,2.299v8.229c0,0.581,0.015,1.161,0.044,1.741c0.218,4.598,1.301,8.976,3.08,12.986    c0.025,0.056,0.051,0.112,0.076,0.168c0.195,0.433,0.395,0.863,0.606,1.287c0.042,0.084,0.086,0.166,0.128,0.25    c1.368,2.697,3.06,5.204,5.026,7.469c-9.745,6.576-16.552,17.498-17.858,30.171c-0.034,0.311-0.061,0.623-0.088,0.935    c-0.031,0.383-0.064,0.764-0.085,1.15c-0.044,0.781-0.073,1.566-0.073,2.357v5.486c0,0.679,0.019,1.353,0.053,2.02    c0.005,0.096,0.016,0.191,0.021,0.287c0.034,0.581,0.077,1.159,0.136,1.73c0.007,0.065,0.017,0.129,0.024,0.194    c0.066,0.608,0.145,1.211,0.239,1.808c0.004,0.028,0.01,0.055,0.015,0.083c1.384,8.637,5.677,16.042,11.981,21.387    c-7.125,6.368-11.812,15.552-12.401,26.022c-0.004,0.072-0.012,0.143-0.016,0.215c-0.034,0.67-0.053,1.345-0.053,2.025v8.229    c0,20.114,16.457,36.571,36.571,36.571h4.571l118.857,50.286C446.331,455.521,442.673,463.75,437.188,475.636z"/>
	</g>
</g>
<g>
</g>
<g>
</g>
<g>
</g>
<g>
</g>
<g>
</g>
<g>
</g>
<g>
</g>
<g>
</g>
<g>
</g>
<g>
</g>
<g>
</g>
<g>
</g>
<g>
</g>
<g>
</g>
<g>
</g>
</svg>